<?xml version="1.0" standalone="no"?>
<!DOCTYPE svg PUBLIC "-//W3C//DTD SVG 20010904//EN"
 "http://www.w3.org/TR/2001/REC-SVG-20010904/DTD/svg10.dtd">
<svg version="1.0" xmlns="http://www.w3.org/2000/svg"
 width="512.000000pt" height="512.000000pt" viewBox="0 0 512.000000 512.000000"
 preserveAspectRatio="xMidYMid meet">

<g transform="translate(0.000000,512.000000) scale(0.100000,-0.100000)"
fill="#000000" stroke="none">
<path d="M1084 4800 c-32 -13 -54 -50 -54 -91 0 -31 21 -64 150 -235 l149
-199 1 -1713 0 -1713 -192 -187 c-105 -103 -197 -201 -204 -217 -17 -41 -7
-81 28 -110 l30 -25 1524 2 1524 3 280 280 280 281 0 46 c0 39 -5 50 -31 72
l-31 26 -1094 0 -1094 0 0 1864 0 1865 -24 28 -24 28 -599 2 c-329 1 -608 -2
-619 -7z"/>
<path d="M2560 4302 l0 -102 59 0 c148 0 426 -54 581 -113 455 -174 816 -505
1025 -939 279 -581 230 -1271 -129 -1807 l-74 -112 125 3 126 3 55 95 c134
231 216 470 257 745 21 144 21 413 0 564 -136 965 -936 1701 -1912 1758 l-113
6 0 -101z"/>
<path d="M1045 3726 c-257 -286 -431 -640 -500 -1016 -26 -143 -32 -481 -10
-634 56 -407 249 -814 523 -1106 l61 -65 1 149 0 149 -49 66 c-175 237 -286
506 -337 816 -24 147 -22 415 5 568 51 287 155 541 314 762 l68 95 -3 147 -3
147 -70 -78z"/>
</g>
</svg>
